HIERARCHY
ROOT Hips
{
	OFFSET 0.000000 0.000000 0.000000 
	CHANNELS 6 Xposition Yposition Zposition Zrotation Yrotation Xrotation
	JOINT LeftUpLeg
	{
		OFFSET 1.363060 -1.794630 0.839290 
		CHANNELS 3 Zrotation Yrotation Xrotation
		JOINT LeftLeg
		{
			OFFSET 2.448110 -6.726130 0.000000 
			CHANNELS 3 Zrotation Yrotation Xrotation
			JOINT LeftFoot
			{
				OFFSET 2.562200 -7.039590 0.000000 
				CHANNELS 3 Zrotation Yrotation Xrotation
				JOINT LeftToeBase
				{
					OFFSET 0.157640 -0.433110 2.322550 
					CHANNELS 3 Zrotation Yrotation Xrotation
					End Site
					{
						OFFSET 0.000000 0.000000 0.000000 
					}
				}
			}
		}
	}
	JOINT RightUpLeg
	{
		OFFSET -1.305520 -1.794630 0.839290 
		CHANNELS 3 Zrotation Yrotation Xrotation
		JOINT RightLeg
		{
			OFFSET -2.542530 -6.985550 0.000000 
			CHANNELS 3 Zrotation Yrotation Xrotation
			JOINT RightFoot
			{
				OFFSET -2.568260 -7.056230 0.000000 
				CHANNELS 3 Zrotation Yrotation Xrotation
				JOINT RightToeBase
				{
					OFFSET -0.164730 -0.452590 2.363150 
					CHANNELS 3 Zrotation Yrotation Xrotation
					End Site
					{
						OFFSET 0.000000 0.000000 0.000000 
					}
				}
			}
		}
	}
	JOINT Spine
	{
		OFFSET 0.028270 2.035590 -0.193380 
		CHANNELS 3 Zrotation Yrotation Xrotation
		JOINT Spine1
		{
			OFFSET 0.056720 2.048850 -0.042750 
			CHANNELS 3 Zrotation Yrotation Xrotation
			JOINT Neck1
			{
				OFFSET -0.054170 1.746240 0.172020 
				CHANNELS 3 Zrotation Yrotation Xrotation
				JOINT Head
				{
					OFFSET 0.104070 1.761360 -0.123970 
					CHANNELS 3 Zrotation Yrotation Xrotation
					End Site
					{
						OFFSET 0.000000 0.000000 0.000000 
					}
				}
			}
			JOINT LeftArm
			{
				OFFSET 3.362410 1.200890 -0.311210 
				CHANNELS 3 Zrotation Yrotation Xrotation
				JOINT LeftForeArm
				{
					OFFSET 4.983000 -0.000000 -0.000000 
					CHANNELS 3 Zrotation Yrotation Xrotation
					JOINT LeftHand
					{
						OFFSET 3.483560 -0.000000 -0.000000 
						CHANNELS 3 Zrotation Yrotation Xrotation
						JOINT LeftHandIndex1
						{
							OFFSET 0.715260 -0.000000 -0.000000 
							CHANNELS 3 Zrotation Yrotation Xrotation
							End Site
							{
								OFFSET 0.000000 0.000000 0.000000 
							}
						}
					}
				}
			}
			JOINT RightArm
			{
				OFFSET -3.136600 1.374050 -0.404650 
				CHANNELS 3 Zrotation Yrotation Xrotation
				JOINT RightForeArm
				{
					OFFSET -5.241900 -0.000000 -0.000000 
					CHANNELS 3 Zrotation Yrotation Xrotation
					JOINT RightHand
					{
						OFFSET -3.444170 -0.000000 -0.000000 
						CHANNELS 3 Zrotation Yrotation Xrotation
						JOINT RightHandIndex1
						{
							OFFSET -0.622530 -0.000000 -0.000000 
							CHANNELS 3 Zrotation Yrotation Xrotation
							End Site
							{
								OFFSET 0.000000 0.000000 0.000000 
							}
						}
					}
				}
			}
		}
	}
}
MOTION
Frames: 18
Frame Time: 0.041667
9.363390 17.497017 7.920766 0.914695 -8.383198 8.267322 -21.133218 -1.745068 -20.361588 3.255429 13.266136 37.743964 -4.532495 20.108487 -9.526004 0.499500 -4.530800 -12.575000 23.698616 16.826260 -14.879915 -4.189583 -13.509109 39.318168 -0.879290 -4.882555 -24.295402 -0.126100 2.289100 -6.305200 1.087992 -1.335366 -4.563417 5.418781 -0.166664 4.844796 6.396493 -21.876724 7.398522 4.958000 -10.981800 4.193800 -90.538192 1.525691 37.432804 23.156060 -29.102067 -7.015444 -0.485914 -1.469562 -23.290076 -7.125000 0.000000 0.000000 84.232089 -1.628225 39.558268 -26.724428 31.762202 -7.042861 -0.900715 -1.857455 -8.698353 7.125000 0.000000 0.000000 
9.367019 17.507677 7.916683 0.896988 -8.328530 8.277446 -21.033223 -2.251294 -20.090391 3.241477 13.274897 37.849531 -4.305757 19.416375 -10.567318 0.298000 -3.509800 -9.701500 23.699972 16.703796 -14.859540 -4.157200 -13.469343 39.175934 -0.821593 -5.006945 -24.045255 -0.116500 2.200400 -6.059800 1.072233 -1.322410 -4.588330 5.381220 -0.153095 4.800004 6.411657 -21.719111 8.029986 4.945000 -10.962000 4.661100 -90.638885 1.513045 37.642720 23.005375 -29.108453 -7.207311 -0.559913 -1.665830 -23.448277 -7.125000 0.000000 0.000000 84.221211 -1.686140 39.669377 -26.437922 31.476212 -6.883618 -0.892844 -1.857557 -8.464747 7.125000 0.000000 0.000000 
9.368380 17.517203 7.916797 0.905298 -8.215803 8.240587 -20.954401 -2.777815 -19.749082 3.229063 13.284749 37.964301 -4.034582 18.606181 -11.643577 0.136900 -2.384700 -6.570200 23.711925 16.802663 -14.660746 -4.119088 -13.421121 39.008609 -0.789926 -5.109028 -23.963473 -0.080300 1.828300 -5.031400 1.059712 -1.333398 -4.612204 5.382187 -0.154736 4.777821 6.464555 -21.518922 8.857196 4.921500 -10.931300 5.219600 -90.713943 1.492176 37.849336 22.842292 -28.886209 -7.072180 -0.657886 -1.601010 -22.841808 -7.125000 0.000000 0.000000 84.264236 -1.855103 39.622026 -26.142264 31.186837 -6.737852 -0.914168 -1.843301 -8.086237 7.125000 0.000000 0.000000 
9.368380 17.526162 7.917250 0.958171 -8.096639 8.167627 -20.928097 -3.305170 -19.365621 3.214415 13.293089 38.075060 -3.713614 17.665908 -12.775350 0.033000 -1.173100 -3.225200 23.698756 16.825272 -14.390416 -4.088838 -13.376486 38.862061 -0.792840 -5.018420 -23.831897 -0.039200 1.277800 -3.513600 1.035640 -1.306088 -4.628196 5.362730 -0.143962 4.792728 6.617955 -21.293308 9.820844 4.902900 -10.882600 5.852000 -90.701433 1.416197 38.296569 22.621617 -28.621812 -6.943104 -0.692359 -1.583192 -23.155556 -7.125000 0.000000 0.000000 84.346560 -2.014033 39.418294 -25.778059 30.841403 -6.579019 -0.944754 -1.827337 -7.740892 7.125000 0.000000 0.000000 
9.369514 17.542719 7.917250 0.942082 -7.957799 8.113120 -20.749114 -4.328046 -18.651869 3.178707 13.292741 38.204664 -3.043922 15.684510 -14.646440 0.086500 1.896500 5.219700 23.741946 16.714400 -14.218732 -4.058911 -13.333066 38.708227 -0.793358 -4.745409 -23.368828 -0.015000 0.790400 -2.172400 1.016456 -1.287967 -4.637889 5.323240 -0.144876 4.882495 6.848415 -21.036009 10.907110 4.883200 -10.801500 6.598900 -90.668956 1.290378 38.914947 22.458524 -28.438587 -6.868850 -0.687778 -1.601642 -24.056034 -7.125000 0.000000 0.000000 84.348922 -1.965386 39.265060 -25.219362 30.302394 -6.328454 -0.975235 -1.803220 -7.450264 7.125000 0.000000 0.000000 
9.369287 17.541131 7.918158 0.898807 -7.820294 8.100691 -20.690059 -4.404778 -18.638108 3.189012 13.308208 38.275358 -2.936762 15.347045 -14.839522 0.074700 1.762900 4.850800 23.791123 16.737197 -14.192753 -4.041496 -13.305337 38.601295 -0.741383 -4.385930 -22.291984 -0.029700 -1.113300 3.060700 1.020021 -1.328165 -4.638471 5.361521 -0.177572 5.087892 7.166079 -20.764376 11.904033 4.903500 -10.682900 7.317600 -90.735173 1.008239 38.823003 22.178108 -28.377516 -7.083074 -0.467629 -1.984121 -24.122017 -7.125000 0.000000 0.000000 84.260892 -1.810349 38.991070 -24.637426 29.722843 -6.060311 -1.016820 -1.754423 -6.824703 7.125000 0.000000 0.000000 
9.367813 17.539317 7.916570 0.868265 -7.719188 8.107124 -20.637484 -4.476952 -18.658304 3.200714 13.327035 38.349843 -2.836921 15.032769 -15.014430 0.053900 1.498200 4.120700 23.828905 16.840691 -14.155909 -4.020630 -13.278096 38.499092 -0.736423 -4.225077 -21.956799 -0.032100 -1.156400 3.179100 1.022777 -1.328048 -4.633352 5.378849 -0.187119 5.213390 7.552943 -20.565989 12.404754 4.985400 -10.567600 7.651000 -90.781287 0.737187 38.410379 21.804305 -28.133571 -7.143031 -0.150222 -2.323273 -23.295992 -7.125000 0.000000 0.000000 84.232592 -1.766089 38.492433 -24.249888 29.318013 -5.870007 -1.040256 -1.709643 -5.933507 7.125000 0.000000 0.000000 
9.366112 17.538977 7.910333 0.765107 -7.662657 8.114464 -20.504803 -4.506605 -18.687800 3.204747 13.336370 38.390276 -2.742190 14.727813 -15.175946 0.036400 1.230900 3.384300 23.966082 16.881276 -14.124595 -4.015735 -13.267744 38.457137 -0.807223 -3.727437 -21.678532 -0.042100 -1.324900 3.643200 1.022333 -1.271503 -4.629170 5.334715 -0.155806 5.151258 7.969184 -20.440164 12.293560 5.157000 -10.480000 7.516500 -90.804835 0.649402 38.093607 21.497141 -27.752015 -6.935504 -0.314650 -2.201610 -22.195742 -7.125000 0.000000 0.000000 84.199454 -1.887900 38.038395 -24.076690 29.114477 -5.769101 -1.043989 -1.682682 -5.220003 7.125000 0.000000 0.000000 
9.365998 17.535574 7.901714 0.649897 -7.619114 8.110625 -20.365676 -4.520918 -18.716604 3.205666 13.342406 38.417909 -2.663695 14.492901 -15.377467 0.019700 0.907200 2.493400 24.111740 16.872365 -14.114655 -4.016418 -13.262968 38.434207 -0.937892 -3.053891 -21.624318 -0.061300 -1.597100 4.393300 1.036803 -1.252525 -4.625091 5.342450 -0.138278 5.049998 8.311365 -20.378558 11.834781 5.334700 -10.421700 7.175400 -90.885009 0.765555 37.951318 21.410857 -27.607133 -6.814211 -0.436121 -2.085641 -22.092445 -7.125000 0.000000 0.000000 84.040547 -2.111265 37.690476 -24.108747 29.101424 -5.758026 -1.042731 -1.664311 -4.809411 7.125000 0.000000 0.000000 
9.365204 17.530698 7.891054 0.650419 -7.569132 8.057016 -20.357707 -4.505940 -18.740814 3.206934 13.347739 38.431985 -2.643622 14.437092 -15.438294 0.005200 0.467400 1.284400 24.145640 16.862574 -14.084391 -4.022260 -13.261475 38.429807 -1.051288 -2.428475 -21.514071 -0.077800 -1.799400 4.951500 1.061095 -1.291738 -4.622946 5.458462 -0.154486 4.972285 8.477620 -20.371959 11.324449 5.412400 -10.385400 6.855500 -91.009081 1.056169 37.908387 21.475973 -27.634682 -6.756659 -0.527271 -1.976270 -22.698399 -7.125000 0.000000 0.000000 83.785504 -2.257325 37.401454 -24.141028 29.089334 -5.777829 -1.038229 -1.669879 -4.734702 7.125000 0.000000 0.000000 
9.364751 17.530131 7.878012 0.725920 -7.498282 8.006712 -20.422937 -4.512641 -18.770283 3.204031 13.349876 38.430224 -2.616883 14.350576 -15.463599 0.000000 0.044200 0.121400 24.089702 16.830464 -14.086431 -4.032938 -13.264271 38.441353 -1.151220 -1.776720 -21.250837 -0.087300 -1.905600 5.244900 1.077153 -1.331293 -4.621099 5.555389 -0.174826 4.908439 8.470317 -20.414672 10.805766 5.406100 -10.374600 6.550900 -91.067775 1.400908 37.987221 21.522994 -27.586154 -6.618854 -0.658297 -1.791715 -23.045217 -7.125000 0.000000 0.000000 83.529305 -2.279205 37.064355 -24.033180 28.971565 -5.788906 -1.037799 -1.702614 -4.853156 7.125000 0.000000 0.000000 
9.366225 17.532286 7.866218 0.757234 -7.455847 8.022180 -20.439254 -4.551780 -18.811785 3.199105 13.351484 38.434039 -2.533797 14.090270 -15.601742 0.000800 -0.179400 -0.492900 24.032123 16.777315 -14.171718 -4.034009 -13.264674 38.442356 -1.117216 -1.757020 -20.909184 -0.105900 -2.098300 5.777300 1.084411 -1.343059 -4.618183 5.545160 -0.182323 4.881876 8.369274 -20.471975 10.290908 5.359300 -10.371500 6.247900 -91.038562 1.752367 38.417207 21.598702 -27.537978 -6.462503 -0.761166 -1.586738 -23.862018 -7.125000 0.000000 0.000000 83.366300 -2.305809 36.524650 -23.918212 28.867014 -5.795363 -1.029455 -1.735914 -5.039688 7.125000 0.000000 0.000000 
9.366112 17.533987 7.855785 0.787035 -7.462038 8.066611 -20.456482 -4.620086 -18.877116 3.201365 13.361496 38.469083 -2.463801 13.896930 -15.803256 0.004900 -0.451100 -1.239500 23.974593 16.825232 -14.244184 -4.024881 -13.254661 38.403860 -1.073486 -1.818688 -20.620497 -0.137000 -2.385500 6.572200 1.094565 -1.361294 -4.623218 5.552483 -0.187781 4.835135 8.300404 -20.459924 9.828975 5.354200 -10.341200 5.970500 -91.026289 2.110854 38.637085 21.572556 -27.520502 -6.472392 -0.744991 -1.617249 -24.856924 -7.125000 0.000000 0.000000 83.305842 -2.346409 35.840543 -23.741776 28.693103 -5.757343 -1.017219 -1.759843 -5.242741 7.125000 0.000000 0.000000 
9.363730 17.537842 7.843651 0.813381 -7.419298 8.144426 -20.438564 -4.707044 -19.006684 3.208827 13.377336 38.521725 -2.362639 13.566537 -15.923402 0.011700 -0.698000 -1.918100 23.961917 17.072584 -14.271858 -4.006610 -13.237177 38.339382 -1.005902 -2.158083 -20.613085 -0.158300 -2.563800 7.066600 1.117258 -1.419229 -4.644811 5.617574 -0.206692 4.716840 8.159181 -20.466739 9.472397 5.301400 -10.328300 5.736500 -91.036071 2.429132 38.687692 21.354338 -27.272378 -6.374153 -0.748141 -1.624374 -25.145883 -7.125000 0.000000 0.000000 83.273117 -2.292702 35.158151 -23.343745 28.285012 -5.630217 -0.989212 -1.796586 -5.394544 7.125000 0.000000 0.000000 
9.361802 17.544307 7.829248 0.774912 -7.349350 8.250543 -20.329614 -4.758518 -19.184918 3.215923 13.391473 38.573039 -2.225117 13.098736 -16.043437 0.017400 -0.852700 -2.343700 24.023729 17.327291 -14.336270 -3.987534 -13.221140 38.276299 -0.927650 -2.547867 -20.604236 -0.173400 -2.682100 7.395000 1.146791 -1.484961 -4.677118 5.655387 -0.227067 4.582847 7.919120 -20.481249 9.284012 5.155900 -10.323100 5.617200 -91.014821 2.514085 38.340609 20.844846 -27.012959 -6.647482 -0.243057 -2.223377 -25.421371 -7.125000 0.000000 0.000000 83.275027 -2.157700 34.342561 -22.793816 27.723630 -5.452640 -0.966931 -1.832404 -5.342447 7.125000 0.000000 0.000000 
9.361689 17.547595 7.816660 0.842749 -7.359886 8.305527 -20.373762 -4.758027 -19.330050 3.221819 13.403338 38.613247 -2.138663 12.815664 -16.140344 0.031400 -1.144600 -3.146800 23.928810 17.409461 -14.431575 -3.977265 -13.209705 38.234881 -0.873168 -2.723053 -20.420140 -0.185900 -2.777200 7.659000 1.148306 -1.500631 -4.710354 5.616808 -0.226765 4.433362 7.748726 -20.376449 9.253322 5.052300 -10.266800 5.613500 -90.922952 2.617861 38.323284 20.336550 -26.400340 -6.414553 -0.293796 -2.221659 -24.702943 -7.125000 0.000000 0.000000 83.398554 -2.104691 33.386688 -22.280430 27.215524 -5.295979 -1.005390 -1.827288 -5.021476 7.125000 0.000000 0.000000 
9.361802 17.547822 7.807248 0.973993 -7.376110 8.313619 -20.513538 -4.713436 -19.424217 3.222913 13.408091 38.627531 -2.087740 12.648187 -16.180977 0.061400 -1.599100 -4.398900 23.740669 17.364827 -14.516676 -3.977433 -13.207247 38.227766 -0.869570 -2.670608 -20.288491 -0.216700 -2.997000 8.270400 1.125708 -1.472509 -4.730788 5.466065 -0.213960 4.354387 7.608333 -20.300433 9.298946 4.931000 -10.221800 5.664300 -90.685309 2.731762 38.378852 19.760894 -25.704315 -6.167521 -0.340277 -2.240061 -23.673075 -7.125000 0.000000 0.000000 83.626932 -2.059483 32.403973 -21.857918 26.818519 -5.171134 -1.068216 -1.797782 -4.514382 7.125000 0.000000 0.000000 
9.360441 17.548276 7.798629 1.003871 -7.343931 8.276325 -20.532944 -4.636650 -19.446206 3.216234 13.401388 38.607042 -2.023685 12.420848 -16.204042 0.086200 -1.893600 -5.211800 23.694149 17.291230 -14.556174 -3.985483 -13.215544 38.257145 -0.890419 -2.548388 -20.256085 -0.274300 -3.368600 9.306800 1.115529 -1.463654 -4.731933 5.329599 -0.217129 4.362649 7.517034 -20.276842 9.340134 4.813200 -10.195500 5.733600 -90.436085 2.723117 38.263876 19.219802 -25.062659 -5.963438 -0.332358 -2.285509 -22.808393 -7.125000 0.000000 0.000000 83.823226 -1.900408 31.397570 -21.480620 26.472664 -5.071078 -1.130680 -1.763352 -3.800310 7.125000 0.000000 0.000000 
